<svg id="Layer_1" data-name="Layer 1" xmlns="http://www.w3.org/2000/svg" width="665.9" height="698.3" viewBox="0 0 665.9 698.3">
  <defs>
    <style>
      .cls-1 {
        fill: #fff;
      }

      .cls-2 {
        fill: #e11d37;
      }

      .cls-3 {
        fill: #c22035;
      }

      .cls-4 {
        fill: #14254c;
      }

      .cls-5 {
        fill: #e21e36;
      }

      .cls-6 {
        fill: #fab16a;
      }

      .cls-7 {
        fill: none;
      }

      .cls-8 {
        fill: #dc7f1b;
      }

      .cls-9 {
        fill: #15254b;
      }
    </style>
  </defs>
  <g>
    <g>
      <circle class="cls-1" cx="243.6" cy="151.8" r="94"/>
      <g>
        <polygon class="cls-2" points="187.8 117.3 196.2 190.2 243.7 216 243.7 97.6 187.8 117.3"/>
        <polygon class="cls-3" points="299.5 117.3 291.1 190.2 243.7 216 243.7 97.6 299.5 117.3"/>
        <path class="cls-1" d="M265.7,187.2h13.8l-35.8-77.9-35.8,77.9h13.7l7.1-16.8h29.9Zm-32.2-28.1,10.2-24,10.1,24Z"/>
      </g>
    </g>
    <g>
      <polygon points="391.2 260 360.9 290.3 386.9 300.7 419 267.8 419 226.2 391.2 226.2 391.2 260"/>
      <path class="cls-4" d="M327.3,433.5a20.7,20.7,0,0,1-9.3-39.1,123.8,123.8,0,0,0,43.6-36.5A125.2,125.2,0,0,0,385,299.3a20.7,20.7,0,0,1,41,5.1,164.2,164.2,0,0,1-89.4,126.8A20.9,20.9,0,0,1,327.3,433.5Z"/>
      <path class="cls-5" d="M477,435.5,397.3,445,381.5,324.2a55.8,55.8,0,0,1,55.2-64.6h0a55.8,55.8,0,0,1,55.1,64.6Z"/>
      <path class="cls-4" d="M510.7,314.1c-22.8,0-41.6-9-48.5-12.7a20.7,20.7,0,1,1,19.9-36.3c4.1,2.3,25.6,13.1,44.8,4.3,8.9-4,13.9-10.6,16.8-14.5,16-21,13.3-48.5,11.4-59.4a20.7,20.7,0,0,1,40.7-7.1c2.8,16.2,6.7,57.5-19.2,91.5-4.3,5.6-14.2,18.7-32.4,27A79.2,79.2,0,0,1,510.7,314.1Z"/>
      <polygon class="cls-5" points="552.5 126.5 550.9 210.1 607.2 202.9 579.7 120.2 552.5 126.5"/>
      <path class="cls-6" d="M488,676.4a12.9,12.9,0,0,1-5.6-1.4,12.3,12.3,0,0,1-5.4-16.6l52.3-103a12.4,12.4,0,0,1,22.1,11.2l-52.3,103A12.4,12.4,0,0,1,488,676.4Z"/>
      <path class="cls-6" d="M476.2,663.2A12.7,12.7,0,0,0,489,676.6h4.8l43.1-.5a7.8,7.8,0,0,0,1.1-15.5l-23-4-23.7-4.9a12.7,12.7,0,0,0-15.1,11.6Z"/>
      <path class="cls-6" d="M160.6,676.4a12.7,12.7,0,0,1-8.2-3.1,12.4,12.4,0,0,1-1.1-17.5l98.2-111.4a12.4,12.4,0,1,1,18.6,16.4L169.9,672.2A12.8,12.8,0,0,1,160.6,676.4Z"/>
      <path class="cls-6" d="M173,663.2a12.6,12.6,0,0,1-12.7,13.4h-4.8l-43.2-.5a7.8,7.8,0,0,1-1.1-15.5l23-4,23.7-4.9A12.6,12.6,0,0,1,173,663.2Z"/>
      <path d="M458,462.4l-70.6,80.5a1,1,0,0,0-.4.5l-56.1,94.3a3.4,3.4,0,0,1-3,1.7L110,641.1a3.6,3.6,0,0,1-2.6-6.1L222.9,519.8l1-.7,175.9-83.4a3.4,3.4,0,0,1,2.8-.1l54,21.1A3.5,3.5,0,0,1,458,462.4Z"/>
      <path d="M466.5,419,582.8,520.9a3.8,3.8,0,0,1,1,3.8l-38,114.8a3.6,3.6,0,0,1-3.4,2.4l-137.3-.7a3.5,3.5,0,0,1-3.3-4.9l38.1-98.2a3.7,3.7,0,0,0,.2-1.8L425.5,431.7a3.5,3.5,0,0,1,2.6-3.9l35.1-9.6A3.7,3.7,0,0,1,466.5,419Z"/>
      <path class="cls-4" d="M389.5,406.9l93.5-9.2-4,33.1a43.4,43.4,0,0,1-41.8,37.9h0a43.4,43.4,0,0,1-44-36.8Z"/>
      <g>
        <path class="cls-4" d="M546.7,462l-48.3,41.6a2.9,2.9,0,0,1-4.4-.6l-45.8-69.7a3.1,3.1,0,0,1,.9-4.2l26.4-16.4a3.1,3.1,0,0,1,3.2,0l67.7,44.5A3,3,0,0,1,546.7,462Z"/>
        <path class="cls-4" d="M341.9,480.2l-19.7-17.9a3,3,0,0,1,.7-4.9l76-36.4a3.1,3.1,0,0,1,3.4.6l19.9,19.6a3,3,0,0,1-.8,4.9l-76.2,34.7A2.9,2.9,0,0,1,341.9,480.2Z"/>
        <path class="cls-4" d="M361.4,478.3l52.8-41.6a1.9,1.9,0,0,1,1-.5L462,422a3,3,0,0,1,3.8,2.5l8.7,82.1a3,3,0,0,1-3.7,3.2L362.6,483.5A3,3,0,0,1,361.4,478.3Z"/>
      </g>
      <g>
        <path class="cls-5" d="M448.6,170.1l30.6-17.4a18.4,18.4,0,0,1,21,2h0a18.5,18.5,0,0,0,24.8-.9l13.6-13.3,5.8,8.9L525.6,166a18.5,18.5,0,0,1-24.7-.3l-2.5-2.4a18.5,18.5,0,0,0-18.5-3.9Z"/>
        <path class="cls-5" d="M449.1,169.9l29.6-3.7a18.4,18.4,0,0,1,15.4,5.4l5.7,5.8a18.4,18.4,0,0,0,21.7,3.4l19.7-10.4,5.7,10.3-27.3,12.6a18.5,18.5,0,0,1-22.1-5.2l-7.2-8.9a18.5,18.5,0,0,0-12.7-6.8Z"/>
        <path d="M409.4,260,451,296.4l45.8-30.1-21.9-12.7a16.8,16.8,0,0,1-8.3-14.5V214.9H409.4V260Z"/>
        <path class="cls-4" d="M390.8,198.5v44.2A17.3,17.3,0,0,0,408.1,260h15.6A43.3,43.3,0,0,0,467,216.7V172.5a17.3,17.3,0,0,0-17.3-17.4H434.1A43.3,43.3,0,0,0,390.8,198.5Z"/>
        <path class="cls-6" d="M447.2,214.6v-2.8a32.4,32.4,0,0,0-32.3-32.4h0a32.2,32.2,0,0,0-19.8,6.7,42.3,42.3,0,0,0-1.8,12.4v40.3a32.1,32.1,0,0,0,21.5,8.2h0A32.4,32.4,0,0,0,447.2,214.6Z"/>
        <path class="cls-1" d="M414.5,233.4l-.4-3.1h.7a11.6,11.6,0,0,0,7.5-3.1,10.6,10.6,0,0,0,3.6-6.8l3.1.5a14.1,14.1,0,0,1-4.6,8.7,14.7,14.7,0,0,1-9.3,3.8Z"/>
        <path class="cls-7" d="M449.7,204.1a43.2,43.2,0,0,0-37.6-42.9,43.3,43.3,0,0,0-21.3,37.3v44.2a12.8,12.8,0,0,0,.1,1.9,44,44,0,0,0,15.5,2.8A43.3,43.3,0,0,0,449.7,204.1Z"/>
        <polygon class="cls-8" points="396.7 221.9 412.3 221.9 412.3 195 396.7 221.9"/>
        <rect class="cls-9" x="392.9" y="188.9" width="72.9" height="3.47"/>
        <rect class="cls-9" x="390.8" y="204.5" width="74.9" height="3.47"/>
        <rect class="cls-9" x="390.8" y="235.7" width="60.2" height="3.47"/>
        <rect class="cls-9" x="390.8" y="220.1" width="74.9" height="3.47"/>
        <path class="cls-1" d="M434.7,201.4h-3.6a2.5,2.5,0,0,1-2.5-2.5h0a2.6,2.6,0,0,1,2.5-2.6h3.6a2.6,2.6,0,0,1,2.5,2.6h0A2.5,2.5,0,0,1,434.7,201.4Z"/>
        <path class="cls-1" d="M399.3,201.4h-3.5a2.5,2.5,0,0,1-2.5-2.5h0a2.6,2.6,0,0,1,2.5-2.6h3.5a2.6,2.6,0,0,1,2.6,2.6h0A2.6,2.6,0,0,1,399.3,201.4Z"/>
        <circle cx="429.8" cy="198.8" r="2.6"/>
        <circle cx="395" cy="198.8" r="2.6"/>
      </g>
      <g>
        <path class="cls-6" d="M519.3,97.8l-55.5-18L313,43.7,203.9,17.8a3.9,3.9,0,0,0-4.7,2.7h0a4,4,0,0,0,2.7,4.7L309.6,56.7,458.7,99.2l57.2,11.6Z"/>
        <path d="M301.2,52.6l2.5-9.4a2.8,2.8,0,0,1,3.4-2l6.1,1.6a2.8,2.8,0,0,1,2,3.4l-2.5,9.4a2.7,2.7,0,0,1-3.3,2l-6.2-1.7A2.8,2.8,0,0,1,301.2,52.6Z"/>
        <path d="M198.3,23l1.4-5.2a2.3,2.3,0,0,1,2.8-1.7l6.3,1.6a2.3,2.3,0,0,1,1.6,2.9l-1.3,5.2a2.4,2.4,0,0,1-2.9,1.7L200,25.9A2.4,2.4,0,0,1,198.3,23Z"/>
        <polygon points="620.3 142.8 626 121.2 519 97.6 515.6 110.8 620.3 142.8"/>
        <path d="M503.3,128.1l13.3-50.7a2.4,2.4,0,0,1,2.8-1.6l5,1.3a2.3,2.3,0,0,1,1.6,2.7l-13.3,50.7a2.4,2.4,0,0,1-2.8,1.6l-5-1.3A2.2,2.2,0,0,1,503.3,128.1Z"/>
      </g>
      <path class="cls-5" d="M582.5,97.5,564,94a8.8,8.8,0,0,0-10.4,9.6l.7,6.4a10.2,10.2,0,0,0,8.7,8.9l13.8,1.9a10.1,10.1,0,0,0,11.1-7.3l1.4-5A8.8,8.8,0,0,0,582.5,97.5Z"/>
      <path class="cls-5" d="M562.5,141l-11.9-8.7a14.2,14.2,0,0,1-5.7-14l2.9-17.5a3,3,0,0,1,4.9-1.9l1.7,1.3a2.9,2.9,0,0,1,1.1,1.8Z"/>
      <polygon class="cls-5" points="270.4 426.2 336.5 375.1 364.3 424.6 281.5 451.8 270.4 426.2"/>
      <g>
        <path class="cls-6" d="M231.3,386.9l-34.6-47L114.6,208.3,55.5,113a3.9,3.9,0,0,1,1.2-5.3h0a3.8,3.8,0,0,1,5.2,1l64,92.2,87.6,128,29.1,50.6Z"/>
        <path d="M119.4,194.3l-8.2,5.3a2.9,2.9,0,0,0-.8,3.8l3.5,5.4a2.7,2.7,0,0,0,3.8.8l8.2-5.3a3,3,0,0,0,.8-3.9l-3.5-5.3A2.8,2.8,0,0,0,119.4,194.3Z"/>
        <path d="M58.7,106l-4.5,3a2.3,2.3,0,0,0-.7,3.2l3.5,5.4a2.4,2.4,0,0,0,3.3.7l4.5-3a2.3,2.3,0,0,0,.7-3.2L62,106.7A2.4,2.4,0,0,0,58.7,106Z"/>
        <polygon points="306 468.4 287.3 480.6 231.1 386.6 242.5 379.2 306 468.4"/>
        <path d="M255,362.1l-43.9,28.7a2.1,2.1,0,0,0-.6,3l2.8,4.4a2.2,2.2,0,0,0,3.1.6l43.9-28.7a2.1,2.1,0,0,0,.6-3l-2.8-4.4A2.2,2.2,0,0,0,255,362.1Z"/>
      </g>
      <path class="cls-5" d="M257.3,462l-9.2-16.4a8.8,8.8,0,0,1,5.8-12.9l6.3-1.3a10,10,0,0,1,11.2,5.4l6.2,12.5a10.1,10.1,0,0,1-3.4,12.8l-4.3,2.9A8.8,8.8,0,0,1,257.3,462Z"/>
      <path class="cls-5" d="M292.2,429.4l-12-8.6a14.2,14.2,0,0,0-15.1-1l-15.7,8.4a3,3,0,0,0-.2,5.2l1.7,1.1a2.8,2.8,0,0,0,2.1.5Z"/>
    </g>
  </g>
</svg>
